<?xml version="1.0" encoding="UTF-8"?><svg id="_層_2" xmlns="http://www.w3.org/2000/svg" viewBox="0 0 240.42 55.79"><g id="_層_1-2"><g><g><path d="M58.28,.32c-.79-.47-1.77-.42-2.51,.13-.37,.27-9.24,6.74-21.89,14.13-.33,.19-.61,.47-.81,.8l-2.57,4.34s-.03-.07-.05-.1c-1.26-2.51-3.83-4.54-5.97-4.72-1.24-.1-2.37,.38-3.06,1.32-.32,.43-.86,1.33-1.38,2.53-9.94-.66-16.89-3.29-16.95-3.31-.82-.32-1.75-.13-2.38,.47-.63,.6-.86,1.52-.59,2.35,2.01,6.05,6.73,10.64,12.69,12.37l-8.24,13.65c-.56,.89-1.11,1.79-1.67,2.68-.45,.74-.45,1.65,0,2.38,.45,.73,1.3,1.13,2.13,1.06,4.67-.44,11.49-1.24,15.7-2.1,.2,.84,.56,1.66,1.09,2.44,1.6,2.37,4.7,4.58,7.05,5.03,.14,.03,.28,.04,.42,.04,.81,0,1.57-.44,1.97-1.15,.48-.85,.88-1.7,1.22-2.61,5.14,.95,13.07,2.05,17.85,1.88,.79-.03,1.49-.45,1.88-1.14,.39-.68,.4-1.51,.03-2.2l-11.94-22.03c2.71-.8,4.99-1.81,6.77-2.99,2.68-1.78,5.38-4.83,7.4-8.37h0c2.46-4.31,4.16-9.37,4.9-14.61,.13-.9-.3-1.79-1.08-2.26Z" style="fill:#fff;"/><g><path d="M14.16,33.19c-.95,1.52-1.9,3.03-2.84,4.55-1.61,2.57-3.22,5.15-4.84,7.73-.56,.89-1.11,1.78-1.66,2.67,6.52-.61,13.79-1.57,17.01-2.41,.24-3.87,.5-7.12,1.47-11.65l-9.14-.88Z" style="fill:#c10230;"/><path d="M35.02,16.53l-6.93,11.69s11.39-.33,17.72-4.55c2.65-1.76,5.08-4.8,6.69-7.61,2.41-4.22,3.94-8.96,4.62-13.8,0,0-8.89,6.56-22.1,14.27" style="fill:#c89211;"/><path d="M29.14,36.69c-.4-1.64-3.07-3.55-3.07-3.55,0,0-2.49,9.68-3.21,13.33-.59,2.97,4.04,6.6,6.44,7.06,.97-1.71,1.67-3.55,1.79-5.43-.46-3.51-1.94-11.41-1.94-11.41" style="fill:#101820;"/><path d="M23.24,17.55c.94-1.27,3.93,.55,5.19,3.07,1.26,2.52-2.73,8.85-2.73,8.85,0,0-4.08-2.34-4.61-4.58-.52-2.24,1.21-6.06,2.15-7.34" style="fill:#101820;"/><path d="M20.55,25.02c-.29-1.24,.04-2.77,.41-3.95-11.06-.56-18.7-3.53-18.7-3.53,2.41,7.25,8.93,11.89,16.55,11.55,.87-.04,2.81-.35,4.38-.68-1.51-1.21-2.4-2.35-2.64-3.39" style="fill:#c89211;"/><path d="M50.24,51.66l-12.48-23.03-10.77,2.72c.2,.77,.37,1.51,.51,2.24,.85,.76,1.91,1.88,2.18,2.98v.03c.02,.08,1.5,7.95,1.96,11.44v.11c-.03,.46-.09,.93-.19,1.41,5.83,1.16,14.18,2.28,18.8,2.11" style="fill:#c10230;"/></g></g><g><path d="M97.98,39.27v1.78h-25.94v-1.78h10.94v-1.33h-7.65v-1.72h7.65v-1.45c-2.52,.24-5.01,.36-7.03,.44l-.5-2.76c1.21,.06,2.61,.09,4.03,.12,.5-.71,.95-1.42,1.3-2.16h-3.85v-1.57h16.04v1.57h-3.14c1.81,.8,3.68,1.9,5.13,3.08l-2.13,2.1c-.5-.62-1.16-1.33-1.81-2.02-1.3,.3-2.76,.56-4.27,.77v1.87h8.01v1.72h-8.01v1.33h11.24Zm-21.91-8.03h-3.59v-5.04h24.93v5.04h-3.59v-3.29h-17.76v3.29Zm7-13.28h-10.2v-1.78h10.2v-1.81h3.79v1.81h10.17v1.78h-10.17v1.04h7.77v1.72h-19.36v-1.72h7.8v-1.04Zm-7.06,7.41v-3.79h17.94v3.79h-17.94Zm3.65-1.42h10.64v-.95h-10.64v.95Zm4.92,6.46c-.74,.83-1.6,1.54-2.55,2.16,2.67-.03,5.43-.12,7.74-.27-.39-.36-.74-.74-1.1-1.07l.62-.83h-4.71Z" style="fill:#fff;"/><path d="M122.47,19.88v2.79h9.61v16.13c0,3.17-3.26,4.09-7.83,1.75l.33-1.48c3.5,.42,3.88,.12,3.91-1.51v-13.05h-4.83l3.08,1.33c-1.01,1.36-2.22,2.61-3.23,3.47h3.97v1.78h-5.07v2.43h5.42v1.78h-5.42v5.72h-3.56v-5.72h-5.4v-1.78h5.4v-2.43h-5.1v-1.78h3.14c-.74-1.36-1.54-2.76-2.37-3.94l.98-.86h-2.73v17.4h-3.62V22.67h9.43v-2.79h-11v-1.96h11v-3.44h3.88v3.44h11.12v1.96h-11.12Zm.71,4.62h-7.32c1.51,.92,3.08,2.4,4.21,3.85l-1.33,.95h2.7c.65-1.36,1.33-3.23,1.75-4.8Z" style="fill:#fff;"/><path d="M158.08,20.86v3.94h8.54v11.15c0,3.5-3.65,4.06-7.56,1.96l.33-1.48c2.94,.39,3.53,.12,3.53-1.33v-8.42h-4.83v15.45h-3.85v-15.45h-4.74v12.6h-3.71v-14.47h8.45v-3.94h-11.06v-2.05h12.69c-1.57-1.27-3.29-2.52-4.6-3.41l.59-1.48c2.28,.47,5.22,1.51,7.44,2.64l-1.48,2.25h11.29v2.05h-11.03Z" style="fill:#fff;"/><path d="M192.89,35.65c-3.71,2.25-10.38,4.6-13.76,5.31l-1.07-3.82,1.48-.18v-13.7h3.05v13.19c.56-.09,1.16-.21,1.75-.33V18.9h-5.69v-1.84h14.17v1.84h-4.92v6.14h3.23v1.81h-3.23v8.54c1.63-.39,3.17-.77,4.42-1.13l.56,1.39Zm12.66,2.96l-2.49,3.65c-2.31-1.48-4.27-3.32-5.81-5.69-2.22,2.4-5.25,4.39-9.25,5.66l-.65-1.45c3.94-2.02,6.58-4.42,8.36-7.09-.92-2.05-1.57-4.39-1.96-7.12-.77,1.42-1.6,2.73-2.46,3.79l-1.3-.89c2.1-3.59,3.56-10.7,3.94-15.18l3.88,.59c-.3,1.81-.8,3.77-1.48,5.69h8.12v1.84h-1.81c-.21,4-1.19,7.98-3.32,11.41,1.57,1.87,3.59,3.41,6.23,4.77Zm-8.27-7.92c1.07-2.58,1.51-5.34,1.66-8.27h-3.26c-.18,.44-.36,.92-.56,1.36,.53,2.7,1.21,4.98,2.16,6.91Z" style="fill:#fff;"/><path d="M240.42,17.98v1.84h-20.78v6.26c0,1.99-.12,3.91-.38,5.72,2.19-3.56,3.53-8.15,4.18-11.77l3.68,.95c-.47,1.63-1.07,3.35-1.84,5.01v15.95h-3.59v-10.2c-.56,.62-1.16,1.22-1.78,1.75l-.8-.83c-.68,4.03-2.05,7.38-4.18,9.31l-1.13-.86c1.96-3.56,2.08-8.15,2.08-15.33v-7.8h12.93c-1.81-.95-3.74-1.84-5.22-2.49l.33-1.42c2.22,.21,5.66,.89,7.92,1.72l-1.07,2.19h9.67Zm-3.53,7.29h3.35v1.81h-3.35v11.53c0,3.44-3.17,4.8-8.69,1.84l.36-1.45c4.24,.65,4.69,.36,4.69-1.48v-10.44h-7.03v-1.81h7.03v-4.54h3.65v4.54Zm-7.65,10.64c-.65-2.05-1.69-4.65-2.61-6.76l1.24-.71c1.78,1.78,3.41,4.03,4.39,5.87l-3.02,1.6Z" style="fill:#fff;"/></g></g></g></svg>